# xmcd CD database file
#
# Track frame offsets:
#	150
#	28510
#	64869
#	88428
#	107487
#	130790
#	162642
#	181442
#	198683
#	253435
#	281637
#	313068
#
# Disc length: 4439 seconds
#
# Revision: 0
# Processed by: cddbd v1.5.2PL0 Copyright (c) Steve Scherf et al.
# Submitted via: CDex 1.70beta2
#
DISCID=bb11550c
DTITLE=Blood, Sweat and Tears - Sail Away
DYEAR=1973
DGENRE=Jazz
TTITLE0=Almost Sorry
TTITLE1=God Bless The Child
TTITLE2=Back Up Against The Wall
TTITLE3=You've Made Me So Very Happy
TTITLE4=Down In The Flood
TTITLE5=Inner Crisis
TTITLE6=Sail Away
TTITLE7=Empty Pages
TTITLE8=Snow Queen
TTITLE9=Maiden Voyage
TTITLE10=And When I Die
TTITLE11=Over The Hill
EXTD=YEAR: 1973
EXTT0=
EXTT1=
EXTT2=
EXTT3=
EXTT4=
EXTT5=
EXTT6=
EXTT7=
EXTT8=
EXTT9=
EXTT10=
EXTT11=
PLAYORDER=
